<mxfile host="app.diagrams.net" modified="2024-06-15T20:51:09.860Z" agent="Mozilla/5.0 (Windows NT 10.0; Win64; x64) AppleWebKit/537.36 (KHTML, like Gecko) Chrome/125.0.0.0 Safari/537.36" version="24.5.4" etag="Nu6bMtK_1_1UASuHoFfs" type="github">
  <diagram name="Page-1" id="JaHJDkWFrS_T5SHXoWdx">
    <mxGraphModel>
      <root>
        <mxCell id="0" />
        <mxCell id="1" parent="0" />
      </root>
    </mxGraphModel>
  </diagram>
</mxfile>
